<svg version="1.1" xmlns="http://www.w3.org/2000/svg" xmlns:xlink="http://www.w3.org/1999/xlink" x="0" y="0" viewBox="0 0 671.4 1007" xml:space="preserve" opacity="0.5"><style>.st2{fill:#5cb496}.st3{fill:#b2dcce}.st4{fill:#29956b}.st5{fill:#185a40}</style><defs><path id="SVGID_1_" d="M0 0h672v1007H0z"/></defs><clipPath id="SVGID_2_"><use xlink:href="#SVGID_1_" overflow="visible"/></clipPath><g clip-path="url(#SVGID_2_)"><path d="M1 0h671v1007H1V0z" fill="#85c8b2"/><path class="st2" d="M-13 412c45-3 91-1 136 2 124 9 251 29 373 3 67-16 132-42 190-78v-73c-88 47-175 97-273 95-113-2-211-72-317-111H-13v162z"/><path class="st3" d="M686 743a590 590 0 00-377-77A590 590 0 00-13 820v129h46c19-13 36-32 53-49 73-79 166-153 274-154 85 0 163 45 232 94 31 23 62 47 94 69V743z"/><path class="st3" d="M397 612c103 9 194 63 289 105V419c-43 18-87 33-132 44-114 27-232 27-348 42-75 9-151 26-219 57v182c131-67 265-145 410-132z"/><path class="st2" d="M686 520c-115 11-233 2-350 2-118 0-241 11-349 57v61c57-23 113-51 172-70 143-45 298-37 446-10 27 5 54 10 81 10v-50z"/><path class="st3" d="M686 273c-67 45-149 67-230 75-87 8-174 2-260 1-70-1-141 0-209 15v39l54-15c110-29 224-24 337-28 107-3 217-17 308-72v-15z"/><path class="st4" d="M316 967c-3-13 1-26-1-39-3-16-10-31-16-46-2-2-4-7-8-4l-1-6c-3 0-10 4-12 2-4-3 2-8 4-9-5-1-2-4-4-7-4-4-6-4-13-6-10-1-15-5-24-7 0-11-5-4-10-5-5-2-10-5-13-10 4-4 11-2 16-5-2-1-2-3-5-4 10-6 16-8 5-15-4-4-11-6-13-12-7 4-9-8-13-9-7-1-9 6-15 3s-9-13-2-17c5-3 11 2 16-5 2-3 3-9 2-13h-4c1-4 0-7-1-10h-4c-1 6-12 6-11-1 1-2 7 0 7-4 0-3-5-4-7-5-4-2-13-6-18-6-6-1-8 5-13 4 1-8-8-8-6-16 2-9-9-9-15-10 3-7-8-10-13-11l5-4c-3-5-11-5-16-4-12 0-27 0-38 3 5 7 1 20 3 28 3 12 11 22 18 34 6 12 15 22 19 35 5 15-6 32-3 47 4 20 8 31 0 48-12 23-5 50 7 73 12 22 26 31 51 26 15-3 30-10 46-11 17-1 34 5 51 5l50-2-1-5zm279-265c-9 0-21-2-29 0-5 2-9 7-16 7 1 2 1 5 3 7-9 4-15 13-24 14l-2-5c-7-1-10 5-9 12-14 3-7-25-24-23-13 1 10 16 5 27-8 2-11-5-9-12-8 3-6 8-3 14l11 12c9 7 22 6 18 22l-15 1 1 11c-6 2-14 1-20 2l-6-8c-5 2-9 5-11 10 5 5 12 7 19 11-7 1-46 6-46 16 0 7 24 7 30 6-7 2-15 1-21 6 6 3 16 5 24 6-4 2-17 3-16 9 0 7 12 5 17 7-22 1-31 18-52 6v4c-12-17-21 1-13 7-6 3-8 9-8 15-10 2-22 15-22 25 0 16 16 16 26 23 14 8 18 26 30 35 11 9 31 6 44 6 56-1 98-32 140-66 32-26 44-55 52-95 5-28 12-50-8-74-15-17-28-19-49-21-10-1-18-2-24-10"/><path class="st4" d="M416 855l1-5-1-19-4-14c0-9-10-25-3-32 8 6 5 28 9 37 2 6 6 8 7 15 1 6 0 12-1 18 0 1-2 4 0 4l3-3v-7c0-5 2-9 1-14l-2-7c0-3-2-4-3-6-2-5 2-12 1-18 0-1-1-5 1-5 2-1 3 2 3 4l-2 11v5c0 2 2 2 3 4 2 3 2 8 2 12 1 2-1 12 2 13s5-4 5-6c0-3-2-5-3-8v-10l-2-9c0-2-1-5 1-7 1-1 2 0 3 2v6l1 4c0 2-1 13 2 13 5 0 1-13 1-15l-1-10v-10c1-3 0-10 4-10 2 5-2 9-2 14l1 13 2 6 2 7v13l2 7c2 1 3-2 4-3v-8l-1-7-1-11v-11c0-1-2-10 2-8 2 1 1 9 1 11l2 11 1 10v8c-1 2-2 12 3 8 3-2 4-5 3-9l1-13-1-7 1-6v-8c0-1-1-5 1-6s2 5 2 7v11l-1 4 2 5-1 7 1 5c1 5-3 11-6 15l-4 7c-5 4-11 6-17 6-6 1-17 2-22-2-3-1-3-5-3-9z"/><path class="st5" d="M-42 706c13-3 29-3 42-4 6 0 15 0 18 5l-5 5c5 1 17 4 14 12 6 1 19 1 16 11-2 9 8 8 7 18 6 1 8-6 15-5 5 0 15 4 20 7 2 1 7 2 8 5 0 5-8 3-8 6-2 7 10 6 12 0h5l1 11h4c1 5 0 11-3 15-5 7-11 2-17 5-8 4-5 16 2 19 7 4 10-4 17-3 5 1 6 14 15 10 2 6 9 9 14 13 12 8 5 10-6 17l6 4c-6 3-14 1-18 6 3 5 10 9 15 11 6 1 10-7 11 5 10 3 16 7 27 9 7 1 9 1 14 6 3 3-1 7 5 8-3 1-9 7-5 10 2 2 10-3 13-2l1 7c5-5 8 6 11 5 8-4 0-8-2-12s-5-8-2-11c6-7 8 0 10 3 2 2 2 11 8 7s-2-8-3-12c-2-5-1-9-2-14 0-6-2-9-3-14-2-6 0-12 0-18-1-5-4-8-4-13l-1-4c-1-1-3-2-3-4-1-2 1-3 1-6 3 0 3 7 3 8 1 4 5 5 4 9v4l2 3c1 3 2 5 1 8 0 3-1 6 1 9l1 4c0 2-1 4 1 6 1 1 2-1 3 1v7c1 3 1 13 6 8 4-3-1-7-1-11-1-3 0-4-3-7s-2-3-3-6l-1-16c0-3-2-4-3-7v-3l-2-2-1-3v-3l-2-5c-2-2-4-2-4-5 0-2 1-4 3-3l3 4 2 3v5l4 4c1 3 0 5 2 7l2 6c0 3 0 4 2 6 4 4-1 7 1 11l2 4c0 2-1 5 1 7l2 1v2l4 5 2 3v7c1 1 4 4 6 2 1-2 0-4-1-5l-1-2v-5c-1-2-3-2-3-5l-2-9c-1-3-5-3-3-7s4-8 2-13-6-10-2-15c3 1 3 3 3 5-1 4 1 4 3 7l1 9c0 2-3 5-2 7 2 2 4 1 4 4v5l2 4 3 7 3 6c0 2 1 2 2 1 2-1 1-2 1-4v-6l-2-8-1-6 1-10c2-5 1-9 1-14 0-4 2-6 3-9s0-5-1-8c-1-2-2-4-1-6l2-5c2 0 1 4 1 5l-1 5 2 1c3 4 2 5 1 9-1 3-3 7-2 11s2 5 0 9v13l1 4 3 3v14c2 2 3-3 3-4l-1-8 1-9-2-8 2-10c1-2 1-4 3-4 2 3-2 7-2 11l2 11c0 3 3 9 2 13l-1 6 2 2v2c1 2 3-1 3-3 2-3 1-4 0-7l2-7 1-10v-8c2-3 5-5 5-9 1-3 1-7-1-9l-2-5c0-2-1-6 1-6s2 0 2 1v5l3 4c3 4 3 10 2 14l-5 12 1 6v6l-1 4 1 2c1 3 0 4-1 7v8c-1 1-3 1-3 3l-1 3c0 1-3 5-1 5 3 1 4-3 6-2s1 4 3 5h3l3 3 1-2 2-1 3-3c1-3 1-2 3-2h3v2c2-1 4-4 6-1-1-3 3-4 4-2-1-4 4-2 5 0-1-2 0-4 1-4 0-2-1-5 2-5-3-4 4-8 3-3l2-1h1l1 3c2-3 4-3 6-1l1 2c0-3 3-2 5-1 1-2 4-4 5 0l1 2h1l6-3c3-3 6-11 12-9l-2 6c2-2 5-6 8-6l-2 4 6-3c2 1 2 2 2 4 5-1 10-9 16-8 7 1-8 18-9 20 1-1 4-2 4 1 2-2 5-3 7-1l3-1c2 0 1 3 2 5s1 0 2 0l2 1c2-2 3 3 4 4h3l1 3c6-3 0-8-1-12-1-3 2-6 1-9l-3-9c-1-2-2-8 1-10 1-1 2 0 3 1 1 3 0 6 2 10 3 3 4 6 2 10l-1 6c0 2 2 3 3 5 1 1 0 12 6 8v-8l-4-4c-2-4 1-7 2-12l-1-5-2-4c0-2 0-4 2-5 3-1 3 1 3 3v12c1 5 3 7 5 11 2 2 2 5 2 9l1 5c2 2 4 0 4-2 1-3-2-7-3-10l1-6c0-2-3-3-3-5-1-2 0-4 2-4 3-1 3 1 3 3v7c0 3 2 3 3 5v17c2 2 4 2 5 0 2-3-1-7-1-10l2-6v-6c2-4 4 1 3 3 0 4-2 5 0 9s0 7 2 11c3 3 4 4 3 8v4c1 2 3 2 1 5l4-2h2c2-1 1-4 1-6 2 1 2 0 3-1h4c7-2 4-2 6-6 0 0-3-4-2-5 1-3 4-3 5-5 4-5 8-9 1-16 2 0 6-4 9-4 2 0 5 5 7 4 7-3 1-12-1-15-9-19-4-42-8-63-1-4-4-6-3-10 11 1 10 28 11 36l6 21c2 9 4 9 10 17 3-18-3-28-8-42-3-8-1-14-2-22-1-5-9-11-4-15 7 4 4 12 6 19 2 6 7 11 9 17l4 18c2 7 7 11 6 20 15-2 3-21 2-28-1-5 0-9-2-14-1-4-4-15 4-9 2 2 4 11 5 14 1 7 1 11 4 17 7 16 8 2 9-8 4-2 8-2 11 1 7-4-2-14 6-14l1-3 6 4c9-7 0-9-4-14 4-8 13-4 18-11 5-8 3-10 12-13 14-5 22 2 33 9 5 4 20 17 27 16 9-2 5-14 15 1 11 18 7 36 1 55-9 29-12 59-22 87-6 16-13 41-33 44-11 2-23 1-35 3-20 3-36-1-55-3s-36 4-54 5c-21 2-42 0-63 4-38 7-73 5-112 5-20 1-39-4-58-5-23-2-45 2-68 2-20 0-38-7-57-6-18 1-35 9-52 12-27 6-43-4-56-29a85 85 0 010-79c10-19 18-34 14-56-4-18-13-35-18-52-5-15-6-33-12-46-7-14-27-17-30-31-2-8 2-23-3-30h1z"/><path class="st5" d="M153 643l2-1-3-3v-3c0-2 0-3-3-1 0-2-2-1-3-1 1-1 1-4-1-4l-2 2h-2c-1-2-2 0-3 0s-2-2-4-1a3 3 0 00-4 1c-1-3-3-1-5 0-1-2-3 0-4-2-1-1 0-3-3-2v-3h-7l4-1c0-2-2-2-3-3 3-1-1-4-3-5 2-2-3-5-5-6 4-1 2-4 0-5l-4-4c2 0 2-6-1-6l-1-2c1-4-4-3-6-3 0-2-2-3-4-3 1-4-4-2-4-7 2 1 9 4 9 0-3-1-6-1-8-3 1 0 10 0 6-3h-6c-2-2 6-1 5-4l3-1 5 2v-1c2 1 6 2 5-1v-1c1 1 7-6 1-6v-2h-2c0-1-1-2-3-2-2 1-4-2-6 0l-3 1c-1-1-2-2-2 0l-3 1-2 1c0-1-1-2-2-1l-1 1c-1-1-4-2-5 0l-5-3c6 0 13 1 18-3-1-2-3-2-5-2l7-1c-3-2-7-2-10-3h13c-5-4-11-4-17-4l6-2c3-3-1-2-3-2 1-1 5-2 4-4l-4 1c1 0 3-2 2-3 0-2-3 0-4 1 1-1 4-5 1-5-2 0-4 5-5 6-1-4-5 0-6 1-1-2-2-2-4-1 3-2 1-4-2-3 1-2 0-3-2-3 0-2 0-3-3-3 1-2 0-4-2-3l-1-2-2 1c-1-3-4-1-3 2l-2-1-3-1c1-2 0-4-2-4l1-5h-1c-1-1 0-3-3-4 3 0 4-1 1-4-4-4-12-4-17-7 3 1 12 4 14 1 1-3-6-6-8-7h5c-1-2-3-2-5-3 3-1 5 2 8 1-1-4-6-4-8-6-1-2-2-5-4-3l-3-3c2 0 3-2 3-3 1 0 4 0 4-2l7 3v-2l3 1c1-2-1-4-3-4h-2l-1-2-2-1-5-2c-2-3-2-3-5-3 0-3-2-3-3-4-2-1-3-3-5-2l-3-2H7c0-2-2-3-3-2 0-4-32-11-35-12l-6 442 1 50 6 43c1 15 8 27 24 30 14 3 30 1 45-2 6-2 12-6 19-6h17c7-1 19-1 23-7 1-2 0-2 2-3l4-3c2-4-3-7-5-2-1 1 0 2-2 3-1 1-3 2-4 0-2-2 5-5 6-7 1-1-1-7-2-8l-5 1 3 4c1 3-2 6-5 6 1-4-4-3-6-1-3 2-2 5-4 7-5 3-3-4-7-4l-3 2-4 1c0-3-4-3-5-4l-1-3-2-2c-2-1-2 1-3-1l1-3c0-3 4 0 6-1 1-1 3-3 3-5 3 0 8 1 11-1 1-1 1-6 4-5 1 3 4 1 5 3l3-2c2 0 2 2 4 3 4 1 5-5 8-5-1 3 0 6 4 6 4 1 7-2 7-6 0-1 0-4-2-4s-2 4-3 4c-4 2-1-5-5-5-2 0-5 6-7 2l1-5 3-1c3-1 6-14 0-13v9l-6 1c-2 2 0 4-1 7s-7 4-7 0l3-2c1-2-1-3-1-3l2-3-1-3c0-3 4-4 4-7h-2v-4h-1l-1-3c-3-2-3 3-2 5-1-1-4-1-5 1l-3-4-2-5c0-1-1-8-3-5-3-1-2 2-3 4-1-2-2-1-4 0 0-3-2-2-4-4 2 0 6-3 3-3 1 0 2-3 0-2 1-2 1-4-1-4 0-1 1-3-1-3 1-1 1-2-1-2 0-2-2-4-3-2v-2h-2l-2-3-2-1c-2-2 0-5-1-7l-2-4c0-2 2-1 1-3l15-1 9-1c2-2 0-3-2-3 0-2 4-2 6-2l-3-2 12-1c5-1 21-6 8-8 3-1 5-1 6-4l1-5c1-2 3-1 3-5 0-1 0-4 2-4l2 5 1-6c2 3 1 7 2 9 3-1 0-11 3-9l1-4 3 1c2-1 0-4 2-6s5-1 4-5c4 0 5-2 7-5 2 0 2 2 4 1 2 0 2-2 3-4 4 3 9-3 9-7l-2-2 2-2c1-2 0-4-1-5l4-1c1-1-1-2-1-3l2-2-2-2c3-2 2-4 0-5 4-4-9-2-10-2-1-1-2-2-3-1-1-3-2-5-5-5 4 0 8-1 11-3-1-2-6-2-9-3l3-1c-1-2-5-2-7-2 3-3-11-3-12-3l6-3c1-1-2-2-3-2-2-3-3-4-7-4 0-2 1-5-1-6-1-1-3 0-4 1l-4-1c0-4-3-8-8-6l-1-4c4 2 14 3 11-4h5c2-1 0 0 0-2s-1-3-3-3l1-1h-2l-1-2-4-1c0-2-1-3-3-2l5-4c0-3-5-1-7 0 7-4 2-9-1-4 1-2 3-4 1-6l-4 5-1-3h-1c0-2 0-4-2-4 0-1-1-3-3-3 2 0 3-1 3-3 0-1 1-3 2-2 2 0 1 1 1 2 0 2 0 8 3 5 2 2 5-1 4-3 2 4 8-3 4-4v-4l-1-1c2-1 2-3 1-4 2 2 6 2 8-1v-2l2-2c1-1-1-2-1-4 0-1 2-3 0-3 0-2-2-3-3-1l-5-1 6-2 5-1c2-1 6-5 2-6l3-3h-1c0-2-1-5 1-5l-4-3c3-4 4-3 3-8-1-2 1-7-1-7 1-2 0-3-1-4 3-1 2-4 0-5l7 1v-2l6 2c0-2-1-3-2-3 2 0 9 5 9 0 2 2 7 3 8 1 3 0 7 0 6-4h3l-2-2zm593 254l-11-74c-2-9-9-27-4-36l-3-302-16-36-12-16-7-6c-2-2-2-6-3-8-1-3-5-5-6-9s3-15-5-15c-2 0-3 2-2 4l2 2v14c1 3 4 6 3 10-5 1-4-6-6-9s-4-3-5 1c-2 7 4 11 7 16 3 4 1 3-2 5l-4 1-3 4c-5 3-13-1-12 8 6 1 10 5 8 11-1 4-6 11-9 7-2-1 0-6-4-4-3 0-2 4-5 4-6 2-7-1-7 7-3-1-6 0-6 4-3-1-6 2-3 5-3 1-6-1-6-4s3-3 4-5c2-3 1-13-2-16-5-5-5 3-5 6s2 5 0 7c-4 3-4-1-5-3s0-4-4-3c-3 1-3 3-3 5l5 10c1 3 2 8 6 9 4 2 8 2 11 6 2 3 1 9 0 13-8 0 10 10 11 13 1 4-6 2-10 3s-20 6-19 11c5 1 11 0 16 2-5 1-8 2-12 5 2 3 6 2 7 5l-30 8c-1 1-7 1-8 3 0 3 6 4 8 4-2 1-6 0-7 3-2 3 0 6 2 7h-1l-10-1c-3-2-2-6-4-7-3-4-9-2-11-7-3-6 3-9 3-14-1-7-7-2-8 2l-1 8c-1 2-4 3-3 7 1 3 10 11 2 10-7-1-6-10-10-13l-5-2c-2-3 0-6-1-7-2-5-7 0-8 4 0 3 3 8 6 10l5 1c2 1 1 3 2 4 2 5 4 5 7 8 1 2 1 4 3 5l5 1c2 1 5 4 1 5-2 1-4-1-5-1l-5 2a6 6 0 01-4-9c-4-3-8-4-8 1 0 2 6 8 1 9-4 1-3-7-6-8-5-3-9 5-7 9l11 8c3 0 8-2 11-4 2 0 7-3 10-1l2 8c-4 1-6 3-7 7v4c0 1-3 2-2 3 2 9 11-5 13-7 4 0 3 0 6-4 1-1 4-7 7-4 2 1-1 6-1 8 0 4 0 8-3 12l-4 5c-3 5 0 7-6 5-6-1-18-6-16 5l8 1c3 0 4 4 7 4 2 3 0 5-1 8-3-1-6 3-6 6-2 4 0 7 5 7 4 7 1 5-4 6l-15 8c-4 7 8 4 11 4 5 0 8 3 14 2-1 5-11 2-13 6 9 7 17 2 27 4 6 1 3 4-2 4h-6l-5 4c0 4 10 5 13 5v4c0 2-4 1-6 1-1 3-5 3-6 6-1 1 1 1 1 3l-2 4c-5-1-4 4-3 7-4 0-3 4-1 6-4 0-3 3-4 5-3 2-2 2-5 1-2 0-2-3-5-2l-1 5-2 2-3 1-1 4c-1 2-3 4-5 4-4 2-14 1-14 7 4 0 6 3 10 3-1 0-22 9-13 11-6 5 9 7 12 7 5-1 9 0 14 1 2 0 10 0 12 2 4 4-5 4-7 6-1 3 0 6 2 7-11 4 7 10 10 13l-2 4c1 3 4 4 4 6 2 4-2 9 2 14 7 9 19 4 28 9-4 1-11 1-13 5-1 3 4 5 6 5 7 1 15 1 21 4-2 2-4 2-2 6 3 3 10 4 14 5 0 3 3 3 6 3 1 4-3 3-5 4-3 2-4 4-3 8-5 0-11-6-10 3l-4-1c-1 3 0 6 2 8-3-1-6 2-7 3-2 2-4 4-3 8 0-2-3-2-4-3l-1 5c-4-2-6 5-6 8-3-4-6 3-7 6-4 0-5-6-3-8-2-1-4 1-4 2 1-2-4-4-6-2 2-4 2-10-3-9v-1c-1-2-2-3-4-3 0-3 1-17-5-9-1-7-5 0-5 4-10-1-8 15-4 22-4 2-3 9-3 12 1 6 8 8 8 12 0 3-5 6-5 10l2 5c1 2-1 4 1 7-2 1-4 5-4 7-5 0-2-6-8-3-3 1-1 4-5 1-2-1-2-6-4-8-6-5-5 3-4 7s1 11-5 6c-4-4-1-13-1-18 1-3 2-5-2-6s-4 1-5 4 1 6-2 9c-2 2-4 0-6 2-3 5 5 12-2 15-8 4-7-9-5-14-14-2-8 16-3 21 5 6 9 4 15 1 3-1 10-1 12 3 2 3-2 8-6 9-5 1-9-7-12 0-2 6 4 8 9 7 4 0 7-3 11-4 5 5-4 10-5 14-8 17 71 21 81 18 12-4 22-10 35-9 7 1 13 3 20 3h19c9 2 17 7 27 7 11 1 21-1 29-8 13-13 18-35 20-52 3-26 0-53-3-80z"/><path class="st4" d="M284 496l8-10 6-6c3-4 7-6 11-9 7-4 15-9 23-11l19-2 6 1c1 0 1 2 3 2 1-1 1 0 2 1l2-1 5-2 5-2 4-1 8 2 2 2c0 1 0 3 1 2l-1 2h1l-8 5-10 4c-2 2-7 5-4 7h7l6 4 2 6 1 4 1 5-1 11-3 8-4 9-3 3-2 2c-2 1-2-2-2-3l-1-3v-5-7-6-2-2l-1-2 1-3h-2v-2-3l-2-5-2 3-7 5-6 3c-1 2-4 2-6 4l-13 8-11 2-11 2-8-1c-4 0-2 0-4 3l-4 6-6 7c-1 2-3 4-6 4l-5-1-1-6c1-6 3-11 7-15 0-1 3-5 4-4l-3-4c-1-1-2-1-2-3-1-1 0-1 1-3l3-3zm-28 108c0-2-1-5-3-6v-1-1l-1-1h-1l-1-1h-7l-1 1-1-1-1-1-2-2h-1v1l1 1v1h-1-1l-1 1h1l3 1h2l1 2h-1l2 3v1l1-1c3 3 7 4 11 3h1zm49 13l-5-5-1-1-1-1h-2l-2 1h-2l-3 2v1h-1l-1-1h-1l-3-1v1l1 1-1 1v1h-1v1h1l3-1 1-1 1 1 1 1 2 2 1 1 1-1h4c2 1 5 0 8-2h-1 1zm11-22c-1-2-4-3-6-3h-1v-1h-3l-1 1-2 1-1 1-2 3v1h-1-5v1h1v1l1 1-1 1v1l1-1 2-2h4l-1 1 4 1v-1c5-1 9-3 11-6zm26-4l-7-1h-1-1l-1 1-1 1-1 2-1 1-1 3v1l-1 1h-1l-3 1h-1v1h2l1 1v2h1l2-3v-1h3v1h3l1-1-1-1c4-1 7-4 8-8v-1zm-71 28l-4-5v-1l-1-1h-1l-1-1-2 1h-4v1h-1l-1-1-3-2v3h-1v1h-1 5l1 1 1 1h-1l2 2v1l1-1 3 2 7-1h1zm33-31l-5-4-1-1h-2-1l-2 1h-1l-2 2h-1v1h-1v-1h-1l-3-1v1l1 1v1l-1 1c-1 0-1 0 0 0v1l3-1 1-1 2 1h-1l3 2h1v-1l3 1 7-2v-1h1zm-22 12l-3-2v-1h-4l-2 1v1h-1v-1h-1-1-1 1v1l-1 1h4v1l1 1h1v-1a8 8 0 007 0v-1zm35 5l-4-2-1-1-1 1h-1l-1 1-1 1h-1v1l-1-1h-2v1h1v1h-1v1h1l2-1h1v1h5l4-3zm32-34l-4-1h-1l-1 1-1 1v1l-1 2v1h-1l-2 1h1l1 1h-1v1h1l1-2 1-1h1v1h2v-1l2-1 2-4zm-21 5l-3-2h-1-2l-1 1v1l-1 1-1 1h-3v1h1v2l2-1v-1h1v1h3l2-1 3-3zm-69 10l-2-3h-1c1 0 0 0 0 0v-1h-4l-1 1h-1l-1-1-2-1v2l-1 1h4v1l1 2 1-1c2 1 4 2 7 1v-1zm-15 26c0-1 0-2-2-3v-1h-1l-1-1h-1l-1 1a10 10 0 00-2 0h-1l-2-1v1l-1 1h3l1 1 1 2h1c1 1 4 2 6 1v-1zm25-18l-2-4-1-1h-3l-2 1h-2l-1-1h-1l1 1-1 1h3l1 1h-1l2 2v-1l3 1h4zm9 15c-1-2-1-3-3-3v-1h-1l-1-1-1 1h-3v1h-1v-1l-2-1v2l-1 1h4v1l1 1h8zm-17 20c0-2-1-3-2-3v-1h-1-1-1l-2 1h-1l-2-1v1h0v1h3v1l1 1h1a6 6 0 005 0zm93-31l-3-1h-1-1v1l-1 1v1l-1 1v1h-1-1l-1 1h2v2-1l1-1v-1h1v1h2v-1c2-1 4-2 4-4zm-103-27l-1-3v-1h-1l-1-1h-2-1-1c0 1 0 0 0 0l-2-1v1h-1v1h3v1l1 2c2 1 4 2 6 1zm-35 12l-2-4v-1h-1-2-2l-1-1-1-1v1l-1 1 2 1h1v2h1l2 1 4 1zm16-6l-1-4-1-1-1-1h-2-2l-1-1-1-2v1l-1 1h-1l2 1h1v1l1 2 2 2 4 1h1zm3 26c1-2 0-3-1-4l-1-1-1-1h-4v1h-1v-1l-2-2v2h-1v1h3v1l1 2v1l1-1 2 2h4z"/><path class="st3" d="M607 248l2-1 1-1-2-2 5 1h7l1-1h1-2l-2-1-2-4 1-4 1-2 2-2-4 1-2 1-2 2-4 4h-1l-2 1h1v-1-2h-14l-4 1-6 2-3 3a28 28 0 00-3 4v8l1 2h11a64 64 0 0017-7l2-2zm28-40v-1l1-1c0-2-1-1-2-2h8l2-1 1-1h-3l-2-3v-3-2l1-2-2 1-2 2-1 1-3 4-1 1-1 1 1-1v-1l-1-1h-1l-2 1h-4l-2 1-2 1a21 21 0 00-8 4l-2 2-1 3v6l1 1v1s0 2 1 1h7l2-1 7-4 3-2 3-3 1-2h1zm18 57l1-1v-1c1-1-1-1-2-2h8l2-1h1l1-1h-2-1c-2 0-2-2-3-3v-3l2-4-3 2-1 1-2 2-2 4h-1l-1 1v-1-1h-5l-3 1h-2l-2 1-3 2-4 2-2 3-1 3-1 1 1 3v3h1v2h4l2-1h1l3-1 6-4 4-2 2-2 2-2v-1zm18-66v-1h1l2-1h2-1-1l-1-2v-1-1l1-1-1 1h-1l-1 1-1 2h-1 1l-1-1h-1l-1 1h-1-2l-1 1-2 1-1 2-1 1v2l1 1v1h3l2-1 2-1 2-1 1-2 1-1zm-692-7c4-5 5-11 3-17l-1-1 1-2v-4l-2-2-1-2-4-3-4-2c-2-2-4-3-7-3l-2-1h-1l-1-2v-3l-3-8-1-1h-1v4l-2 2h-2l-3-1h-1l-1 1 1 2a34 34 0 008 6l1 2v4h-1c-1 3-2 6-1 9l1 1h3l4 9c4 6 9 10 16 12h1zm88 89c1-6 0-12-4-17h-1v-3l-1-3-3-1-2-2-5-1-4-1a25 25 0 00-10 0l-1 1-2-2-1-1v-2l-6-6-1-1-1 1v1l1 2-1 3-2 1h-2l-2 1v1l1 1 9 2h2l1 2 2 3v2h-2c0 3 1 6 3 8l1 1c1 1 2 0 3-1 6 8 16 12 26 12v-1h2zm52-33c-1-6-5-12-10-15h-1l-1-2-3-3h-3l-2-1-5 1-4 1-7 2-2 2-1 1-2-1-1-1-2-1-7-4h-2l1 1 1 2v3l-1 2-2 1-1 1v2h1l9-1 2-1 2 1 3 3v1h-1l5 7h2l2-2c9 5 20 6 29 1h1zm60 25c-3-5-8-9-14-10h-1l-1-2-4-2-3 1h-2c-2 0-4 2-5 3l-4 2-6 4-1 2-1 1h-3l-2-1-9-1h-1v1h1l2 2 1 2v3l-2 1-1 2v1h2a35 35 0 0010-5h2l3 2h1v1l-1 1 7 4h2l1-3 10 1c7-1 13-4 18-9l1-1zM-9 243c3-5 3-11 1-16h-1l1-2-1-3-2-2-1-2-4-2-4-1-6-2h-3l-1-2-1-1v-2l-4-7h-1v3l-1 2-2 1h-3-1-1l1 2a30 30 0 009 4l1 2v4h-1v7l1 2 3-1a29 29 0 0020 16v-1l1 1zm109-24c1-6-1-11-4-15h-1v-3l-2-2-3-1-1-1-5-1H72l-1 1-1-1-1-1-1-2-6-5h-1v1l1 2-1 2-1 2h-3-1v1l1 1a33 33 0 009 2l2 1 2 3v1h-1c0 3 1 5 3 7l1 1 2-2c6 7 15 10 24 9h1zm-61-1c1-4 0-7-2-10h-1v-2l-1-2h-1l-1-1-3-1h-3l-4-1-1 1h-1l-1-1-1-1-3-4h-1v3l-1 1h-2v1h-1l1 1 5 1h1l1 1 1 2-1 1 2 4v1l2-1a19 19 0 0015 7h1zm68 53c0-3-2-7-5-9v-1l-2-2h-2l-1-1h-5l-4 1-2 1h-1l-1-1v-1l-5-2c0-1 0-1 0 0v4l-2 1h-1v1h7l1 1 2 1v1h-1l3 4 1 1 1-1a19 19 0 0016 3v-1h1zm112-33c-2-3-5-5-8-5h-1l-1-1-2-1-1 1h-2l-2 1-2 1-4 3v1l-1 1h-1l-2-1h-5v1l1 1 1 1v1l-1 1-1 1 1 1h1l4-3h4l1 1h-1l4 3h1l1-2c6 1 12-1 16-5h-1l1-1zm-51-14c0-4-2-7-6-8v-1l-1-1-1-1h-7l-2 1-4 1-1 1v1l-1-1h-1l-1-1-4-2h-1v1l1 1v3l-2 1v1h1l5-1h2l1 2h1-1v1l3 3 1 1 1-2c5 3 12 3 17 0zM7 159c2-3 2-7 0-10v-1-1l-1-2-1-1-1-1-3-1-2-1-4-1h-2l-1-1v-2l-3-4h-1v3l-2 1h-1-1v1a23 23 0 006 3h1v3h-1l1 5v1l2-1c3 6 8 9 14 10v-1 1zm-63 37c2-3 2-7 0-10v-2-2l-2-1v-1l-3-2h-2l-4-2h-2l-1-1v-1-1l-3-4h-1v3l-2 1-1-1h-1v2l5 2h1v1l1 3h-1v5l1 1 1-1 3 5c3 3 6 5 10 6v-1l1 1zm76-8c2-4 2-7 0-10v-1-1l-1-2-1-1-1-1-3-2h-2l-4-1H6l-1-1v-1-1l-3-4H1v3l-2 1h-1-1v1a18 18 0 006 3h1v3H3l1 5v1l2-1c3 5 8 9 14 10v-1 1zm0 42c1-3 0-7-1-10h-1v-2-2h-2l-1-1-3-2h-2l-4-1H4 3v-1l-1-1-2-4-1-1v3l-1 1-1 1h-2-1l1 1a20 20 0 006 2l1 1v3H1l1 4 1 1h2c3 5 8 8 14 8h1zm-60 22c1-3 1-6-1-9v-1l-1-2-1-1-1-1h-2l-2-1-4-1-1 1-1-1v-1l-1-1-2-3h-1v3h-1-2v2l4 1h1l1 1v2 4l1 1 1-1 3 4 9 4v-1l1 1zm236 50c-2-3-4-5-7-5l-1-1-2-1-1 1h-1l-3 1-2 1-2 2-1 1h-1-2l-4-1v1l1 1v2l-1 1v1h1l4-2v-1h1l2 1v1l3 2h1l1-1h5c3 0 6-2 8-4h1zM10 116c2-2 2-6 1-8v-1l1-1-1-2-1-1v-1l-2-1-2-1-3-2H1v-1-2l-2-4-1 1v1l-1 1h-1-1-1v1l4 2 1 1v3h-1v5h2c1 4 5 8 9 10h1zm-89-20c1-2 2-5 1-8v-1-2l-1-1v-1l-2-2-2-1-3-1-2-1v-1l-1-1-1-4v-1l-1 1v1l-1 1h-1-1-1v1a14 14 0 004 3l1 1v3h-1v4h1l2 4 8 7v-1h1zm40 9c2-2 4-5 3-9l1-1v-2l-1-2v-1l-2-3-2-1-4-3h-2v-1-2-5l-1-1v1l-1 1-1 1h-3v-1l-1 1v1l4 3v1l1 1-1 2v1l-1-1-1 5 1 1h1l2 6c1 3 4 6 7 8h1zm-24 60c2-3 2-7 1-10l1-2v-2l-2-1v-1l-3-2-2-2-4-1-1-1-1-1v-2l-2-4v-1h-1v2l-1 1-1 1-2-1-1 1v1l4 3h1l1 1v3h-1v6l2-1 2 5c2 4 5 6 9 7l1 1z"/><path class="st5" d="M185 434c-3-5-8-9-14-10l-2-2c-1-1-2-2-3-1l-3 1-3-1c-2 0-3 2-5 3l-3 2-6 4-2 3h-2-1l-3-1-8-1h-1v1h1l2 2 1 2-1 3-2 2v1 1h2l8-4 1-1h2l4 2h1l-1 2 7 4h2l1-3c10 2 20-1 28-8h-1l1-1z"/><path class="st4" d="M557 557l-4-2-2-3 1-3 3-4-1-1-4 3-4 4-4-1-11-1h1l-9-3-2 4-10 2c-4 1-8 2-9 5l1 1h-2c7 5 15 6 23 5h1l5 3-1-2-1-1 8-3 2 1 6-4-1-1 2-1h1l1 1a44 44 0 0010 3v-1-1zM337 693l4-1 3-2-1-3-1-5c-1-1 0-2 1-1l3 4 3 4 3 1 12 2v-1h-1l10-1 1 4 9 4c3 2 7 4 8 7l-2 1 2 1c-8 3-16 2-24-1l-6 2 1-2 2-1-7-4v-1l-3 1-4-5 1-1-2-1h-1-1l-9 1h-1l-1-1 1-1zM192 513l-3 3c-2 0-4-2-4-3 0-2 2-4 3-4 2 0 4 2 4 3v1zm14-31a2 2 0 11-1-2l1 2zM176 490c0-2 1-3 2-3l2 2c0 2-1 3-2 3l-2-2M164 380c0 2-1 4-3 4s-4-2-4-4 2-4 4-4c2 1 3 2 3 4zM171 375a2 2 0 114 0 2 2 0 11-4 0M164 358l-2 2-1-2 1-2 2 2zm88-82c0 1-1 3-3 3s-3-2-3-3c0-2 2-3 3-3s3 1 3 3zM226 270l2-2 1 1-1 2-2-1M97 342c0 3-2 5-4 5s-5-2-5-5c0-2 2-4 5-4s4 2 4 4zM80 329l2-1 1 1-1 2-2-2M104 300a2 2 0 11-2-2l2 2zM4 272l-2 2-2-2 2-2 2 2zM11 280l2-1 2 1-2 2-2-2M47 228l2-2 2 2-2 2-2-2M47 165c0 3-2 4-4 4s-4-2-4-4 2-4 4-4c2 1 4 2 4 4zm12 4a3 3 0 11-6 0c0-1 1-2 3-2 1-1 3 1 3 2zM49 181l1-1 2 1-2 1-1-1M131 460c0 2-2 4-4 4-3 0-4-2-4-4s1-4 4-4c2 0 4 2 4 4zm6 11l-1 1v-1-1l1 1zm2 74a3 3 0 01-6 0c0-2 1-3 3-3 1 0 3 1 3 3zm-4 17l-2 2-2-2 2-2 2 2zM106 760a5 5 0 019 0 5 5 0 01-9 0M124 778a2 2 0 114 0l-2 2c-1 0-2 0-2-2M146 783c0 1-1 2-3 2l-2-2c0-2 1-3 2-3s2 1 2 3h1zM130 808c0-2 1-4 3-4s4 2 4 4-2 3-4 3-3-1-3-3M161 820a5 5 0 0110 0 5 5 0 01-10 0M250 665c0 1-1 3-3 3l-3-3c0-2 2-3 3-3 2 0 3 1 3 3zm-17-14l-2 2-2-2 2-2 2 2zm8-1c0 2-2 3-3 3s-3-1-3-3l3-2 3 2zm104-111c0 2-2 3-4 3s-3-1-3-3 1-4 3-4 4 2 4 4zM351 533c0-2 1-3 3-3s2 1 2 3-1 2-2 2l-3-2M345 526l-2 2-2-2 2-2 2 2zM514 476c0-2 2-4 5-4s4 2 4 4-2 4-4 4-5-1-5-4M507 472l-1 1h-1c-1-1 0-2 1-2l1 1zM514 462l2-2c2 0 3 1 3 2l-2 2-3-2M519 453a3 3 0 015 0c0 2-1 3-3 3-1 0-2-1-2-3M536 505c0-2 2-4 4-4s4 2 4 4-2 4-4 4-4-1-4-4M529 581c0-2 1-3 3-3 1 0 2 1 2 3 0 1-1 2-3 2l-2-2M474 651a3 3 0 113 2c-2 0-3-1-3-2M479 636c0 2-1 3-3 3l-2-4c0-1 1-2 3-2s3 1 3 3h-1zM485 645a3 3 0 015 0c0 2-1 3-3 3s-2-1-2-3M435 678c0-1 1-2 3-2l2 2c0 2-1 3-2 3-2 0-3-1-3-3M440 656c0-2 1-3 2-3l2 2v1l-2 2-2-2M428 724c0 1-1 2-3 2l-2-2 2-2a2 2 0 013 2zM604 371c0-2 0-2 2-2s2 0 2 2l-2 2-2-2M587 367l-1 2-2-1 1-2h1l1 1zm13 13c0 2-1 4-3 4s-4-2-4-4 2-3 4-4c2 0 3 2 3 4zm25-89a4 4 0 11-8 0 4 4 0 018 0zM608 299l1-1 2 1-2 1-1-1M670 224c0 1-1 3-3 3s-3-2-3-3 1-3 3-3 3 1 3 3zM664 169c0-2 2-4 4-4 3 0 4 2 4 4s-1 4-4 4c-2 0-4-2-4-4M651 169c0 1-1 2-3 2l-2-2 2-3c1 0 3 1 3 3zm13 16l-2 2c-2 0-3-1-3-2 0-2 1-3 3-3 1 0 2 1 2 3zM556 300a5 5 0 1110 0 5 5 0 01-10 0M569 312c0-1 0-2 2-2l2 2c0 2-1 2-2 2-1 1-2 0-2-2M556 325c0-1 1-2 3-2l2 2-2 3-3-3M470 237c0 1-1 2-3 2-1 0-3-1-3-3s2-2 3-2c2 0 3 1 3 2v1zm29 2l-2 2-3-2 3-2 2 2zm-15 5l-2 2-2-2 2-3c1 0 2 1 2 3zM379 198c0-2 1-3 2-3l2 3c0 1 0 2-2 2s-2-1-2-2M389 212l-2 2-1-2 1-2 2 2zm-13 5l-2 2c-1 1-3-1-3-2 0-2 1-3 3-3 1 0 2 1 2 3zm-10 86a2 2 0 11-2-2l2 2zM376 312l2-2c2 0 3 1 3 2 0 2-1 2-2 2-2 1-3 0-3-2M362 318c0 1-1 3-3 3l-3-3c0-2 2-3 3-3 2 0 3 1 3 3zM369 327l2-2 2 2-2 2-2-2"/><path class="st3" d="M118 592c0-2 1-3 3-3s3 1 3 3-1 3-3 3-3-2-3-3M131 599l2-2 2 2-2 3-2-3M130 607l-2 2-2-2 2-2 2 2zm56 82a3 3 0 01-6-1l3-3c2 0 3 2 3 3v1zM164 705c0-2 1-3 2-3l2 2c0 2-1 3-2 3l-2-2M183 712l-1 2-2-2 2-1 1 1zm6 10l-2 1-2-1 2-2 2 2zm347-49c0 2-1 3-2 3s-2-1-2-3l2-2 2 2zM536 691l2-2 2 2-2 2-2-2M549 683c0 2-1 3-2 3-2 0-3-1-3-3 0-1 1-2 3-2l2 2zM456 746c0-2 1-3 3-3s4 1 4 3-2 4-4 4-3-2-3-4M470 758c0-2 1-3 2-3s2 1 2 3l-2 2-2-2M456 758c0-2 1-3 2-3s3 1 3 3l-3 2-2-2M475 695l2-2 2 2c0 2-1 3-2 3s-2-1-2-3"/><path class="st2" d="M408 622v-1h1l-1-1h6l-1-1-1-2v-2l1-1 1-1-2 1h-1l-1 1-2 2h-1v-1h-1-2-6l-3 2-1 1-1 2h-1v5h6l4-1 3-1 2-1 1-1zm13-20v-1h1l-1-1a15 15 0 014 0l1-1h1-1-1l-1-2v-1-1l1-1h-2v1l-1 1-1 2h-1v-1h-1-1l-1 1h-1-2l-1 1-2 2-1 1-1 1v4h1v1h2v-1h3l3-2 1-1 2-1v-1zm9 28l1-1-1-1h4l1-1h1-1-1l-1-1v-2-1l1-1-2 1-1 1-1 2h-1v0h-1-1-1-1-1l-1 1h-2l-1 2-1 1-1 2v3h1v1h3l1-1a19 19 0 005-3l2-1v-1zm9-33h2v-1l-1-1v-1h1-1l-1 1v1h-1v-1l-1 1h-1-1l-1 1v3h2l2-1v-1h1v-1z"/></g></svg>